# AST/ASF file generated using VICON BodyLanguage
# -----------------------------------------------
:version 1.10
:name VICON
:units
  mass 1.0
  length 0.45
  angle deg
:documentation
   .ast/.asf automatically generated from VICON data using
   VICON BodyBuilder and BodyLanguage model FoxedUp or BRILLIANT.MOD
:root
   order TX TY TZ RX RY RZ
   axis XYZ
   position 0 0 0  
   orientation 0 0 0 
:bonedata
  begin
     id 1 
     name lhipjoint
     direction 0.54267 -0.795011 0.271047 
     length 2.39899 
     axis 0 0 0  XYZ
  end
  begin
     id 2 
     name lfemur
     direction 0.34202 -0.939693 0  
     length 7.49701  
     axis 0 0 20  XYZ
    dof rx ry rz
    limits (-160.0 20.0)
           (-70.0 70.0)
           (-60.0 70.0)
  end
  begin
     id 3 
     name ltibia
     direction 0.34202 -0.939693 0   
     length 8.1668   
     axis 0 0 20   XYZ
    dof rx
    limits (-10.0 170.0)
  end
  begin
     id 4 
     name lfoot
     direction 0.0736283 -0.202292 0.976554   
     length 2.13544   
     axis -90 7.62852e-016 20   XYZ
    dof rx rz
    limits (-45.0 90.0)
           (-70.0 20.0)
  end
  begin
     id 5 
     name ltoes
     direction 1.53557e-011 -4.22024e-011 1   
     length 1.07411   
     axis -90 7.62852e-016 20   XYZ
    dof rx
    limits (-90.0 20.0)
  end
  begin
     id 6 
     name rhipjoint
     direction -0.538061 -0.797813 0.272002   
     length 2.39057  
     axis 0 0 0  XYZ 
  end
  begin
     id 7 
     name rfemur
     direction -0.34202 -0.939693 0   
     length 7.50152   
     axis 0 0 -20   XYZ
    dof rx ry rz
    limits (-160.0 20.0)
           (-70.0 70.0)
           (-70.0 60.0)
  end
  begin
     id 8 
     name rtibia
     direction -0.34202 -0.939693 0   
     length 8.05793   
     axis 0 0 -20   XYZ
    dof rx
    limits (-10.0 170.0)
 end
 begin
     id 9 
     name rfoot
     direction -0.0765195 -0.210236 0.974652   
     length 2.28698  
     axis -90 -7.62852e-016 -20   XYZ
    dof rx rz
    limits (-45.0 90.0)
           (-20.0 70.0)
  end
  begin
     id 10 
     name rtoes
     direction -1.53542e-011 -4.21847e-011 1   
     length 1.14762   
     axis -90 -7.62852e-016 -20   XYZ
    dof rx
    limits (-90.0 20.0)
  end
  begin
     id 11 
     name lowerback
     direction -0.0217239 0.996592 -0.0795765   
     length 2.08176   
     axis 0 0 0   XYZ
    dof rx ry rz
    limits (-20.0 45.0)
           (-30.0 30.0)
           (-30.0 30.0)
  end
  begin
     id 12 
     name upperback
     direction -0.00563773 0.999651 -0.0258155   
     length 2.08898   
     axis 0 0 0   XYZ
    dof rx ry rz
    limits (-20.0 45.0)
           (-30.0 30.0)
           (-30.0 30.0)
  end
  begin
     id 13 
     name thorax
     direction 0.0032706 0.999923 0.0119599   
     length 2.0968   
     axis 0 0 0   XYZ
    dof rx ry rz
    limits (-20.0 45.0)
           (-30.0 30.0)
           (-30.0 30.0)
  end
  begin
     id 14 
     name lowerneck
     direction -0.0285886 0.99568 0.0883427   
     length 1.81272   
     axis 0 0 0   XYZ
    dof rx ry rz
    limits (-20.0 45.0)
           (-30.0 30.0)
           (-30.0 30.0)
  end
  begin
     id 15 
     name upperneck
     direction 0.0807535 0.97985 -0.18268   
     length 1.82518   
     axis 0 0 0   XYZ
    dof rx ry rz
    limits (-20.0 45.0)
           (-30.0 30.0)
           (-30.0 30.0)
  end
  begin
     id 16
     name head
     direction 0.0236605 0.997053 -0.0729767  
     length 1.84443  
     axis 0 0 0   XYZ
    dof rx ry rz
    limits (-20.0 45.0)
           (-30.0 30.0)
           (-30.0 30.0)
  end
  begin
     id 17 
     name lclavicle
     direction 0.918986 0.39378 -0.0200683  
     length 3.27822  
     axis 0 0 0   XYZ
    dof ry rz
    limits (-20.0 10.0)
           (0.0 20.0)
  end
  begin
     id 18 
     name lhumerus
     direction 1 -4.4897e-011 2.09544e-027   
     length 5.5568   
     axis 180 -30 -90   XYZ
    dof rx ry rz
    limits (-60.0 90.0)
           (-90.0 90.0)
           (-90.0 90.0)
  end
  begin
     id 19
     name lradius
     direction 1 -4.48957e-011 -1.27696e-026   
     length 3.63979   
     axis 180 -30 -90   XYZ
    dof rx
    limits (-10.0 170.0)
  end
  begin
     id 20
     name lwrist
     direction 1 -4.49001e-011 -1.49001e-026   
     length 1.8199   
     axis 9.0955e-015 90 90   XYZ
    dof ry
    limits (-180.0 0.0)
 end
  begin
     id 21 
     name lhand
     direction 1 -4.48709e-011 -2.9758e-026   
     length 0.569419   
     axis 1.90115e-014 90 90   XYZ
    dof rx rz
    limits (-90.0 90.0)
           (-45.0 45.0)
  end
  begin
     id 22 
     name lfingers
     direction 1 -4.49175e-011 -5.96505e-026   
     length 0.45908   
     axis 3.80223e-014 90 90   XYZ
    dof rx
    limits (0.0 90.0)
  end
  begin
     id 23
     name lthumb
     direction 0.707107 -6.34864e-011 0.707107   
     length 0.65915   
     axis -90 45 -3.84942e-014   XYZ
    dof rx rz
    limits (-45.0 45.0)
           (-45.0 45.0)
  end
  begin
     id 24 
     name rclavicle
     direction -0.911913 0.396426 -0.106115   
     length 3.46301  
     axis 0 0 0   XYZ 
    dof ry rz
    limits (-10.0 20.0)
           (-20.0 0.0)
  end
  begin
     id 25 
     name rhumerus
     direction -1 -4.48965e-011 7.78516e-028  
     length 5.34339   
     axis 180 30 90   XYZ
    dof rx ry rz
    limits (-90.0 60.0)
           (-90.0 90.0)
           (-90.0 90.0)
  end
  begin
     id 26 
     name rradius
     direction -1 -4.48948e-011 -5.79823e-027   
     length 3.65101   
     axis 180 30 90   XYZ
    dof rx
    limits (-10.0 170.0)
  end
  begin
     id 27 
     name rwrist
     direction -1 -4.48995e-011 -1.48996e-026   
     length 1.8255   
     axis 9.0955e-015 -90 -90   XYZ
    dof ry
    limits (-180.0 0.0)
  end
  begin
     id 28
     name rhand
     direction -1 -4.48957e-011 -2.97937e-026   
     length 0.694249   
     axis 1.90115e-014 -90 -90   XYZ
    dof rx rz
    limits (-90.0 90.0)
           (-45.0 45.0)
  end
  begin
     id 29
     name rfingers
     direction -1 -4.4898e-011 -5.95943e-026   
     length 0.559721   
     axis 3.80223e-014 -90 -90   XYZ
    dof rx
    limits (0.0 90.0)
  end
  begin
     id 30
     name rthumb
     direction -0.707107 -6.34969e-011 0.707107   
     length 0.803651   
     axis -90 -45 3.84942e-014   XYZ
    dof rx rz
    limits (-45.0 45.0)
           (-45.0 45.0)
  end
:hierarchy
  begin
    root lhipjoint rhipjoint lowerback
    lhipjoint lfemur
    lfemur ltibia
    ltibia lfoot
    lfoot ltoes
    rhipjoint rfemur
    rfemur rtibia
    rtibia rfoot
    rfoot rtoes
    lowerback upperback
    upperback thorax
    thorax lowerneck lclavicle rclavicle
    lowerneck upperneck
    upperneck head
    lclavicle lhumerus
    lhumerus lradius
    lradius lwrist
    lwrist lhand lthumb
    lhand lfingers
    rclavicle rhumerus
    rhumerus rradius
    rradius rwrist
    rwrist rhand rthumb
    rhand rfingers
  end

#!OML:ASF H:\Terrain\Walking\May29\JustinRory\rory.ASF
:FULLY-SPECIFIED
:DEGREES
118
root 2.25508 18.5863 15.533 -175.081 -8.46486 179.143
lowerback 4.46135 1.98738 -1.8846
upperback 2.22143 2.44764 -1.39109
thorax -0.23737 1.16658 -0.48299
lowerneck -7.91529 -9.42244 -9.87642
upperneck 26.1866 -16.3504 8.48803
head 11.3023 -8.22252 2.46263
rclavicle -3.46879e-014 8.34896e-015
rhumerus -11.8492 -45.0027 -50.0397
rradius 39.1637
rwrist -19.54
rhand -23.8218 31.7402
rfingers 7.12502
rthumb 2.64951 1.77694
lclavicle -3.46879e-014 8.34896e-015
lhumerus -33.924 -2.31637 74.2392
lradius 46.0035
lwrist 9.15137
lhand -20.66 22.9059
lfingers 7.12502
lthumb 5.70259 52.8092
rfemur -25.6517 -5.63776 14.412
rtibia 54.5849
rfoot -9.97525 -13.1881
rtoes 2.87551
lfemur -14.2858 -4.85841 -18.0084
ltibia 28.7248
lfoot -14.7931 -0.546737
ltoes -14.9007
119
root 2.24875 18.5724 15.3961 -174.925 -9.13312 178.841
lowerback 4.52372 1.92543 -1.97378
upperback 2.27353 2.36074 -1.30524
thorax -0.225379 1.12151 -0.342354
lowerneck -8.02661 -9.67019 -10.0756
upperneck 25.9831 -16.609 8.56785
head 11.3034 -8.32644 2.47692
rclavicle 2.64384e-014 3.77691e-015
rhumerus -11.1792 -45.3368 -50.2218
rradius 39.316
rwrist -19.8791
rhand -24.3868 31.8772
rfingers 7.12502
rthumb 2.10377 1.90778
lclavicle 2.64384e-014 3.77691e-015
lhumerus -33.5969 -2.98011 74.9385
lradius 47.2672
lwrist 9.63225
lhand -20.371 23.1753
lfingers 7.12502
lthumb 5.98164 53.0709
rfemur -26.0918 -5.72474 13.9285
rtibia 52.8277
rfoot -10.362 -13.5599
rtoes 4.60876
lfemur -13.9537 -5.14774 -18.3073
ltibia 28.6275
lfoot -15.0473 -0.698609
ltoes -15.3455
120
root 2.24846 18.5499 15.2619 -174.787 -9.67689 178.428
lowerback 4.6804 1.86603 -2.20588
upperback 2.12413 2.26914 -1.30361
thorax -0.474203 1.07883 -0.214981
lowerneck -7.47966 -9.73302 -10.1267
upperneck 25.7049 -16.7308 8.62647
head 11.1146 -8.40924 2.52316
rclavicle -1.01877e-014 1.78906e-014
rhumerus -11.0212 -45.2931 -50.1987
rradius 39.4934
rwrist -20.1604
rhand -24.4927 31.8658
rfingers 7.12502
rthumb 2.00154 1.89546
lclavicle -1.01877e-014 1.78906e-014
lhumerus -33.7322 -3.75074 75.4738
lradius 48.5363
lwrist 10.1011
lhand -19.2736 23.5753
lfingers 7.12502
lthumb 7.04104 53.4382
rfemur -26.3827 -5.69498 13.3016
rtibia 50.8115
rfoot -10.6734 -14.0199
rtoes 5.28031
lfemur -13.5226 -5.38473 -18.7218
ltibia 28.4254
lfoot -15.3833 -0.655077
ltoes -16.4135
121
root 2.25118 18.534 15.1278 -174.674 -10.1828 178.031
lowerback 4.80637 1.70446 -2.49897
upperback 2.04798 2.03916 -1.22774
thorax -0.632499 0.965242 0.0331233
lowerneck -7.05588 -9.7179 -10.2883
upperneck 25.4912 -16.6806 8.5837
head 10.9563 -8.42591 2.56992
rclavicle 1.60022e-014 2.18663e-015
rhumerus -10.1722 -45.3386 -50.7219
rradius 39.4937
rwrist -20.0942
rhand -24.8683 31.859
rfingers 7.12502
rthumb 1.63873 1.88559
lclavicle 1.60022e-014 2.18663e-015
lhumerus -33.8204 -4.01324 75.8843
lradius 49.7296
lwrist 10.129
lhand -18.9026 23.016
lfingers 7.12502
lthumb 7.39918 52.8666
rfemur -26.5755 -5.49381 12.6285
rtibia 48.5655
rfoot -10.814 -14.3907
rtoes 6.62297
lfemur -13.0131 -5.28458 -19.0985
ltibia 28.1227
lfoot -15.5995 -0.992639
ltoes -16.5203
122
root 2.25459 18.5322 14.9922 -174.503 -10.7184 177.728
lowerback 4.84742 1.60694 -2.64107
upperback 2.20786 1.89894 -1.15565
thorax -0.495507 0.888789 0.195501
lowerneck -7.44602 -9.9444 -10.3455
upperneck 25.331 -16.8648 8.57389
head 10.9986 -8.47487 2.52576
rclavicle 1.70209e-014 -2.127e-014
rhumerus -8.79022 -46.1018 -51.6848
rradius 39.4997
rwrist -19.8185
rhand -25.664 32.1025
rfingers 7.12502
rthumb 0.870277 2.12451
lclavicle 1.70209e-014 -2.127e-014
lhumerus -33.3572 -4.37605 76.2798
lradius 50.9865
lwrist 10.1487
lhand -19.5968 20.8757
lfingers 7.12502
lthumb 6.72904 50.7488
rfemur -26.7582 -5.17058 12.0076
rtibia 46.1205
rfoot -10.4923 -14.589
rtoes 9.34143
lfemur -12.5636 -5.14529 -19.3386
ltibia 27.8
lfoot -15.6812 -1.45749
ltoes -17.1003
